inDegrees=no
num_controls=7
num_derivatives=13
num_iterations=123
num_multipliers=7
num_parameters=0
num_slacks=7
num_states=26
objective=0.444914
objective_accelerations=0.058863
objective_balance=0.003580
objective_effort=0.023386
objective_height=0.353610
objective_ligament=0.005474
solver_duration=1946.699801
status=Solve_Succeeded
success=true
DataType=double
version=3
OpenSimVersion=4.5
endheader
time	/jointset/ground_pelvis/pelvis_tilt/value	/jointset/ground_pelvis/pelvis_tx/value	/jointset/ground_pelvis/pelvis_ty/value	/jointset/hip_l/hip_flexion_l/value	/jointset/hip_l/hip_adduction_l/value	/jointset/hip_l/hip_rotation_l/value	/jointset/back/lumbar_extension/value	/jointset/patellofemoral_l/patellar_flexion_l/value	/jointset/knee_l/knee_flexion_l/value	/jointset/knee_l/knee_adduction_l/value	/jointset/knee_l/knee_rotation_l/value	/jointset/ankle_l/ankle_angle_l/value	/jointset/subtalar_l/subtalar_angle_l/value	/jointset/ground_pelvis/pelvis_tilt/speed	/jointset/ground_pelvis/pelvis_tx/speed	/jointset/ground_pelvis/pelvis_ty/speed	/jointset/hip_l/hip_flexion_l/speed	/jointset/hip_l/hip_adduction_l/speed	/jointset/hip_l/hip_rotation_l/speed	/jointset/back/lumbar_extension/speed	/jointset/patellofemoral_l/patellar_flexion_l/speed	/jointset/knee_l/knee_flexion_l/speed	/jointset/knee_l/knee_adduction_l/speed	/jointset/knee_l/knee_rotation_l/speed	/jointset/ankle_l/ankle_angle_l/speed	/jointset/subtalar_l/subtalar_angle_l/speed	/forceset/tau_hip_flexion_l	/forceset/tau_hip_adduction_l	/forceset/tau_hip_rotation_l	/forceset/tau_knee_flexion_l	/forceset/tau_ankle_angle_l	/forceset/tau_subtalar_angle_l	/forceset/tau_lumbar_extension	lambda_cid13_p0	lambda_cid13_p1	lambda_cid13_p2	lambda_cid13_p3	lambda_cid13_p4	lambda_cid13_p5	lambda_cid14_p0	/jointset/ground_pelvis/pelvis_tilt/accel	/jointset/ground_pelvis/pelvis_tx/accel	/jointset/ground_pelvis/pelvis_ty/accel	/jointset/hip_l/hip_flexion_l/accel	/jointset/hip_l/hip_adduction_l/accel	/jointset/hip_l/hip_rotation_l/accel	/jointset/back/lumbar_extension/accel	/jointset/patellofemoral_l/patellar_flexion_l/accel	/jointset/knee_l/knee_flexion_l/accel	/jointset/knee_l/knee_adduction_l/accel	/jointset/knee_l/knee_rotation_l/accel	/jointset/ankle_l/ankle_angle_l/accel	/jointset/subtalar_l/subtalar_angle_l/accel	gamma_cid13_p0	gamma_cid13_p1	gamma_cid13_p2	gamma_cid13_p3	gamma_cid13_p4	gamma_cid13_p5	gamma_cid14_p0
1	-0.552415124719817	-0.08233366834162717	0.5649551688854896	1.864212475652644	-0.4662598359927741	0.01674919150288993	-0.2617975627183261	1.410497209758989	1.410497209759034	-0.07170522452315073	-0.174530484490951	0.2241475063713685	-0.006272621127220669	-0.0170688484937182	0.01084725966945852	0.002610167352701635	-0.002147179945114456	-0.00253841178284724	0.003936349992095905	-4.880093691806522e-05	0.002168280918539605	0.002168280918539673	-0.00550173530602446	8.276037465700606e-06	0.02134749567019206	0.009301787388251909	-0.3372817040953251	0.01062621998739449	0.0006546665025815038	-0.3079962635954498	0.03656914756121191	0.03076562921312121	0.2872882646683107	-28.2972572414705	-8.959554218946231	1.723781250950508	8.207457241141414	-645.0464403385582	-48.51552860329586	-0.9150452904841437	1.518949603964421	0.2239101625598135	2.018200868965055	-6.929465951522527	-0.09193252822592357	-2.338028094226859	-0.01746879892164458	-5.375949639451423	-5.375949639451344	-0.6515714369490885	-0.03653737491001984	-0.6536174661663533	-0.4685465628105008	4.532685794525996e-09	1.773298562737476e-08	-1.471910288324804e-08	2.181768001468343e-09	-1.6802090101723e-09	2.45037718664947e-08	2.144157088156717e-09
1.01	-0.5525108095568557	-0.08221405174632772	0.5650820281194643	1.863845841142058	-0.4662887572719024	0.01667062844409786	-0.2617979056190211	1.41025022429939	1.410250224299267	-0.07179014859235078	-0.1745307887387925	0.2243284714930927	-0.006201550236470331	-0.002068214127584694	0.01307881519814952	0.02275709863299436	-0.07116852429361192	-0.003239336423221991	-0.01964240701387987	-1.895377195753399e-05	-0.05156144379111283	-0.05156144379111226	-0.01148032992068948	-6.209407365836957e-05	0.01484010583741589	0.004917170588484282	-0.3371612024478013	0.01072420705647716	0.000641359911887521	-0.3078536506896942	0.03644742482245378	0.03078069551707101	0.2871999410389692	-28.3221720893186	-8.966096198908206	1.729805596561466	8.12901703177328	-644.886690479873	-48.52519890847311	-0.9191349974833491	1.490604811074119	0.2231921320036823	2.012249854162646	-6.886790478687412	-0.05819671014207565	-2.366821911385323	0.01333528846255521	-5.370892586398537	-5.370892586398535	-0.570594719728402	0.008775373025011607	-0.6501126697543913	-0.4227067623265355	-3.17987465909088e-09	9.731943658166056e-09	2.487678906845048e-08	2.560345073621582e-09	-1.131276990829836e-08	7.600697499711595e-08	-9.597771881196417e-09
1.02	-0.5524564911586064	-0.08207203681894536	0.5654102187855623	1.86278932882755	-0.4663244926530745	0.01635647333372279	-0.2617979252851976	1.40946605985276	1.409466059852469	-0.0719347768569004	-0.1745315842472756	0.2244442001309047	-0.006174183018471019	0.01293179856400216	0.01532692608603868	0.04287645377733647	-0.1401227407290715	-0.003901232191547827	-0.04318206032395128	1.584596330992992e-05	-0.1052675164878212	-0.1052675164878215	-0.01744257437548285	-8.997609523785557e-05	0.008300198887793651	0.0005610528380508234	-0.3370407008002806	0.01082219412555274	0.0006280533211860892	-0.3077110377839388	0.03632570208369401	0.03079576182101081	0.2871116174096255	-28.35279108855988	-8.97145394494987	1.735429367216692	8.073120038964104	-644.807087626742	-48.51299931690014	-0.9316890376673082	1.518825269055092	0.227221234399442	2.012685641774932	-6.916040368914934	-0.08412675381611928	-2.330207355045969	-0.01647828486025806	-5.371219236862608	-5.371219236862823	-0.6483014049747504	-0.02803975700106239	-0.6601208895355725	-0.4628467529436419	-1.171202052345644e-08	-1.518416112034809e-10	6.400586872068083e-08	2.777907550796449e-09	-2.143107254987569e-08	1.274294730655104e-07	-2.182838736948467e-08
1.03	-0.5522521150428661	-0.08190742526456944	0.5659393957082421	1.861043723673822	-0.4663665866072213	0.01580719205483967	-0.2617976236190583	1.408145016006958	1.408145016006732	-0.07213892694239941	-0.1745324321849771	0.2244942732720251	-0.006190202071497297	0.02794870921586095	0.01760132334691413	0.06294742710481717	-0.2089751417878886	-0.004503421919387476	-0.06665932133440024	4.086158725684267e-05	-0.1589312597100768	-0.158931259710078	-0.02338200199573402	-6.90743993465889e-05	0.001699889086421429	-0.003755338314065985	-0.3366039617045538	0.01096221616208204	0.000585843669431508	-0.307464761121915	0.03631081481602663	0.03088427070969912	0.2868047799324911	-28.32932322091517	-9.026755486161797	1.758812986073938	7.939991264463615	-644.4366152514079	-48.57800853803635	-0.9529164707747695	1.493912954703977	0.2284403557129737	2.002571257932379	-6.866372048562246	-0.04615280674769667	-2.354275266445311	0.01144763475503955	-5.362446033532339	-5.362446033532325	-0.5659608154955678	0.01876263834474979	-0.6621674400777688	-0.4146170176963115	-2.025252950425822e-08	-1.00548385469012e-08	1.031301849821003e-07	2.993827021900106e-09	-3.155433173985558e-08	1.788511476128618e-07	-3.406398945490491e-08
1.04	-0.551897412022317	-0.08171989146082849	0.5666689359801366	1.858610288094665	-0.4664142800035424	0.01502358020737378	-0.2617971805669487	1.406287635895209	1.406287635895048	-0.0724023107790885	-0.1745327496050585	0.2244779070322039	-0.006249101380314889	0.04299717952582863	0.01991137595904385	0.08294912362020611	-0.2776888258145919	-0.00502112062642106	-0.09004817404088809	4.412316051952206e-05	-0.2125347696773443	-0.2125347696773456	-0.02928932461379637	1.612751496448717e-05	-0.004987677300539734	-0.00801499832020813	-0.3361672226088248	0.0111022381986156	0.0005436340176883811	-0.3072184844598913	0.03629592754835997	0.03097277959839319	0.2864979424553584	-28.31160636889276	-9.080888249460285	1.781825518237166	7.829517406135094	-644.1468269765192	-48.62171805096714	-0.9830988194389091	1.525137200676863	0.2343523046503094	1.998830279356581	-6.888296962492187	-0.06722854965497026	-2.31252569425381	-0.02082909499707215	-5.359172585864949	-5.359172585865052	-0.6418804045370118	-0.01517971331722164	-0.6775722066533448	-0.4515005237487817	-2.658135768803796e-08	-1.443064563919125e-08	1.437636700944712e-07	4.900439848036495e-09	-4.034986360932015e-08	2.252723923775497e-07	-4.41642240216606e-08
1.05	-0.551392067324588	-0.08150906057432981	0.5675980769946013	1.855490604629851	-0.4664664656174333	0.01400681197010522	-0.2617967949811539	1.403894567833808	1.403894567833879	-0.07272450496132078	-0.1745314951323848	0.2243941641459318	-0.006350013237900089	0.0580756506270599	0.02226239299450146	0.1028605845421005	-0.3462039810175905	-0.005373653981410767	-0.1132603311240172	3.253688093354324e-05	-0.2660646509545129	-0.2660646509545136	-0.03513193429713482	0.0002894357950368775	-0.0117813974190144	-0.01212501772935655	-0.33544846362005	0.01133175269208453	0.0004740487094327223	-0.3068385225967186	0.03633235201162905	0.03112898098675864	0.2859967353972918	-28.25878858201864	-9.178285186406168	1.82055285435049	7.663434695774474	-643.5804588747919	-48.73475337657705	-1.022697770718575	1.499780026374658	0.2366165428182619	1.984519879808492	-6.826548461555826	-0.01293109143508083	-2.318822952854865	0.008608037939528608	-5.347756210523562	-5.347756210523408	-0.5528351503108863	0.05683298869793643	-0.6833465221812548	-0.3844181170980444	-3.284107084691077e-08	-1.863372804887485e-08	1.844443167334344e-07	6.859886841517646e-09	-4.91039040000186e-08	2.715373737115295e-07	-5.419772835345803e-08
1.06	-0.5507358223235413	-0.08127449148951163	0.5687257757945255	1.851687084880536	-0.4665209096374768	0.01275926971450569	-0.2617965389716811	1.400966628897259	1.400966628897562	-0.07310460202039988	-0.1745258581988778	0.2242418691369277	-0.006490758383096817	0.07317724018942769	0.02465901562294688	0.1226606807121003	-0.4144560827146747	-0.005472801856965458	-0.1362029777076416	1.820789650346756e-05	-0.3195089447069122	-0.3195089447069118	-0.04086989998361797	0.000892619676249643	-0.01869810184695827	-0.01598165584251075	-0.3347297046312744	0.01156126718555942	0.000404463401192546	-0.3064585607335454	0.0363687764748999	0.03128518237513264	0.2854955283392249	-28.21179030927242	-9.274472687683229	1.858869920145613	7.520121339895864	-643.0956939071984	-48.82765855951301	-1.072232291038794	1.529760892904171	0.2434734232478664	1.976557328977667	-6.835686261309285	-0.01655145376793353	-2.258623594352836	-0.0213776359658999	-5.342055080911123	-5.342055080911117	-0.6209516051659368	0.05079540691091803	-0.7021690685471914	-0.4008242645498954	-4.036400104828413e-08	-2.682067932676205e-08	2.229960537301615e-07	7.55004041278937e-09	-5.833586466003355e-08	3.17081696401322e-07	-6.517648442115514e-08
1.07	-0.5499283719014564	-0.0810156815663854	0.5700508381215232	1.847202476560996	-0.4665750718876444	0.01128370401895818	-0.2617964442754875	1.397504798790624	1.397504798790453	-0.07354155686900128	-0.1745126267619128	0.2240197398657817	-0.00666882360602091	0.08832214596758629	0.02711497917636521	0.1423251818338702	-0.4824082468906313	-0.005313719373772602	-0.1588581598844445	1.862629717364599e-06	-0.3728309661247519	-0.3728309661247528	-0.04650054167575117	0.001805983456032831	-0.02575266620306193	-0.01958685817543818	-0.3337269211472937	0.01182598517809581	0.0003047317278640212	-0.3059293474701202	0.03649393092010321	0.03151579329351348	0.2848068138862591	-28.11494695920155	-9.420281571858425	1.914895787719227	7.28645799586056	-642.3071156305966	-48.9894011959514	-1.132400359981602	1.508242899712619	0.248460990846029	1.957392426180898	-6.766390436690461	0.0390018736648705	-2.261212951821754	0.00840672105515867	-5.323343700869596	-5.323343700869801	-0.5310702819973103	0.1195195659051335	-0.7108376446654672	-0.3337137704345232	-4.795412364553519e-08	-3.521953852317076e-08	2.614345508523015e-07	8.172678376496753e-09	-6.75932466109696e-08	3.625876861845088e-07	-7.620551983650649e-08
1.08	-0.5489691949257018	-0.08073195137383357	0.5715717446442194	1.842040064811505	-0.4666262705581198	0.009583137017144994	-0.2617964790933436	1.393510534864082	1.393510534863436	-0.07403420810067782	-0.1744886791466639	0.2237263174459698	-0.006881609962828369	0.1035225509233823	0.0296430695080707	0.1618295198518105	-0.5500167687046524	-0.004880085918499342	-0.1812032389603567	-7.6949134633556e-06	-0.42599570868856	-0.4259957086885622	-0.05200917659829679	0.00303585533154064	-0.03295673158010632	-0.02292588261917994	-0.3327241376633172	0.0120907031706264	0.0002050000545298205	-0.3054001342066949	0.03661908536530554	0.03174640421188638	0.2841180994332896	-28.02398488611821	-9.564801299704563	1.970419981050751	7.075607655414988	-641.6010093513059	-49.13277935904345	-1.203969481788005	1.54086072843164	0.2578987789052988	1.944524708211751	-6.766957788922201	0.0383587406481436	-2.196602974174675	-0.02002009124483505	-5.310599310104801	-5.310599310104804	-0.5965502512484223	0.1140970260558358	-0.7320692727353342	-0.3475886867127619	-5.462109407596303e-08	-4.223382710558504e-08	2.98960450453325e-07	9.45868156529041e-09	-7.627731818947426e-08	4.02504129603881e-07	-8.589611993737227e-08
